<mxfile host="65bd71144e" modified="2020-11-16T12:00:50.338Z" agent="5.0 (Macintosh; Intel Mac OS X 10_15_6) AppleWebKit/537.36 (KHTML, like Gecko) Code/1.51.1 Chrome/83.0.4103.122 Electron/9.3.3 Safari/537.36" version="13.6.5" etag="-wbfgAic6zYtkmZqzDMU">
    <diagram id="sCcHlY-bTp1y6YpTsGnn" name="Page-1">
        <mxGraphModel dx="226" dy="526" grid="1" gridSize="10" guides="1" tooltips="1" connect="1" arrows="1" fold="1" page="1" pageScale="1" pageWidth="850" pageHeight="1100" math="0" shadow="0">
            <root>
                <mxCell id="0"/>
                <mxCell id="1" parent="0"/>
                <mxCell id="2" value="&lt;meta charset=&quot;utf-8&quot;&gt;&lt;div class=&quot;application-main &quot; style=&quot;box-sizing: border-box&quot;&gt;&lt;div itemscope=&quot;&quot; class=&quot;&quot; style=&quot;box-sizing: border-box&quot;&gt;&lt;div class=&quot;container-xl clearfix new-discussion-timeline px-3 px-md-4 px-lg-5&quot; style=&quot;box-sizing: border-box ; margin-right: auto ; margin-left: auto ; max-width: 1280px ; padding-left: 32px ; padding-right: 32px&quot;&gt;&lt;div class=&quot;repository-content &quot; style=&quot;box-sizing: border-box&quot;&gt;&lt;div class=&quot;Box mt-3 position-relative&#10;      &quot; style=&quot;box-sizing: border-box ; border: 1px solid ; border-radius: 6px ; position: relative ; margin-top: 16px&quot;&gt;&lt;div itemprop=&quot;text&quot; class=&quot;Box-body p-0 blob-wrapper data type-text  gist-border-0&quot; style=&quot;box-sizing: border-box ; padding: 0px ; border-bottom: 1px solid ; overflow: auto hidden ; margin-bottom: -1px ; border-bottom-right-radius: 6px ; border-bottom-left-radius: 6px&quot;&gt;&lt;table class=&quot;highlight tab-size js-file-line-container&quot; style=&quot;box-sizing: border-box ; border-spacing: 0px ; border-collapse: collapse&quot;&gt;&lt;tbody style=&quot;box-sizing: border-box&quot;&gt;&lt;tr style=&quot;box-sizing: border-box&quot;&gt;&lt;td id=&quot;LC1&quot; class=&quot;blob-code blob-code-inner js-file-line&quot; style=&quot;box-sizing: border-box; padding: 0px 10px; position: relative; line-height: 20px; vertical-align: top; overflow: visible; font-size: 12px; overflow-wrap: normal;&quot;&gt;&amp;lt;mxfile host=&quot;Electron&quot; modified=&quot;2020-07-13T16:17:42.785Z&quot; agent=&quot;5.0 (Windows NT 10.0; Win64; x64) AppleWebKit/537.36 (KHTML, like Gecko) draw.io/13.3.9 Chrome/83.0.4103.119 Electron/9.0.5 Safari/537.36&quot; etag=&quot;6yxvPs4TB6QhEysASVZy&quot; version=&quot;13.3.9&quot; type=&quot;device&quot; pages=&quot;2&quot;&amp;gt;&amp;lt;diagram id=&quot;wOaqQH-1K1oo2jQjaTFz&quot; name=&quot;Mobile&quot;&amp;gt;7Vpbk5owFP41PtpJiCA+6ra2Tnd7szM7feqgRKAFQjFWt7++iSQIm2Bxl+i2W3wQTi4k33fOyTkJPXSV7F7nXhbeEB/HPQv4ux562bMsaNuA/XHJXSFxR3YhCPLIF5UOgnn0CwuhaBdsIh+vaxUpITGNsrpwSdIUL2lN5uU52darrUhcf2vmBVgRzJderEpvI5+GYhZyWlz+BkdBKN8MgShJPFlZCNah55NtRYRe9dBVTggt7pLdFY45eBKXot20obQcWI5T2qZB/vVdH1k/8/XL229vv753ZxHt9yEquvnpxRsxYzFaeichyMkm9THvBfTQZBtGFM8zb8lLt4x0JgtpErMnyG5XURxfkZjk+7YIjvmPycVrcE7xrnECsISF6RMmCab5HasiGpQ6IVTJEY/bAy8DyUtY4cSVlHhCF4Ky6wNc7EYgdgJ6llnwwP4yAx4ctkTPMYYeHGjgc2LKgSBsVtyoJRbOjw23E4YEWu2vqsgJ+P/r2ZQ1mVGcyF7YqIqOigqP42ZNc/IdV9hZAf47ovL83RW5MwZgOu2IzVGdTaRhs6xTZRM6xth0/rPZEZv2E2Bz2LVra4DP99bhvg8tK9Op8IBVVlKS4suuKJYx2F0FduhmOwV6NmVax9eLoyBl90s2dcxQmnBgIhbHjEVBEvk+b64lqk5ljZMOYC7XmiMwnxXlUcfK3VaJG2zgPMrtqqjrdHvoGouWwHOA3bkg7KMv+Ztk9WnsbdbhNxqnmTWDffhn1AMGe9Y4d5FaeQtZHZyKCQJ2DZOhra5vOg9gTBXVrOeaBETBhfXE8swmp1n1vuusSD5X0Y5rpKqNDkCDhdVWxZqJVDGWQYMC6VCnZqYQbY7lQ3gI2QrJQgo+8OTbAp8jyhA/hHmL+w2YrNrLHxfDOvrCtjXm3tWi2XqdPIXX0nZUW4GGbEU7vBZJrmn/Ue4iCV0fqcoOdZhA2zak7nazuiOpqDc43VQ1GLVIXeADUpfStdxLXTpwOZaelgrujgb2gSkno6aYc+zly/AJugRd4GGMD9nLvTRStZKzhtlqCnmDE7x+omSdiRT3wqSoCeZ4QTb0eZMC4flY6ScADK7d0eSdjezP2cyDH281ju3IGtFme0ueNRxzQxrumpOo0/cEHkBLHw3qxGgSBf2GTAfrvJaYrrfB/hVioCYsNcaMdsC6COzMYWkZ/NxJ96CCgnSglOh17t51O1siLrVk+CljJnDtLfhp7SFCtU7IsboOlObiZRrDmO6vR6m3fXw5gMMXupTCPuPCLJekCnWzNOMrM5gQdQe4o5ShKJEn28gExjIabWkbxkwDqh5jsqGUpI/D9p6uivOs5mTMxM7QceRhW7fUBfTa8TUfDVaT4ocfFk4J4T6o6aCwTQr+NOLdo+FBhyeOyCkdXrlNrSoJRIYcoDbUarFP/deFWqed0AzbBlVdbLBoObCePQf2xTno+ousv48DdHEOWiQX/97XD1ATohn7/EELu7o59Qxg150QdwU7ezx8YLovq3ymi179Bg==&amp;lt;/diagram&amp;gt;&amp;lt;diagram name=&quot;Desktop&quot; id=&quot;saaGIXDusM_9Ymfcs9zt&quot;&amp;gt;7ZxRc6JIEMc/jY97BYwIPhpPTW43u1tnrvbu3lBGoIIMwfE0++lvkBkVpomogGyJeQg2CMX/19PT3Q520HC5nURW6D4TG/sdTbG3HfR7R9NUXVfYv9jynljMvp4YnMiz+UEHw9T7ibmRf85ZezZepQ6khPjUC9PGOQkCPKcpmxVFZJM+bEH89FVDy8GSYTq3fNn6w7Opy+9C3FZsf8Se44orqwrfs7TEwdywci2bbI5MaNRBw4gQmmwtt0Psx+IJXd6D2fTFDv+xvtmTh0e6/rEav31KTjY+5yP7W4hwQMs9tZac+j/LX3O9+L3SdyFgRNaBjeOTKB30sHE9iqehNY/3bpjLMJtLlz57p7LNhef7Q+KTaPdZpA7iP2bnl8ERxdsMlxM3pe6VZi6KyRLT6J19jp+ly9lw5+zxt5sDaUPY3CPKpoBsce9y9mc+KMg2uIhnCIqqFVTZveoTVDUKKqqbVSlqAIr2fBrLFG858dYUW9HcFXZ2mcMuSX4mGE1rvKIRecVC5YAEOCM8N1m+5wTs7ZwJjJn9IZbfY6FmwHcsPduOLwNCTWNfkIAece0pqDvTquTay4BVdQmsCXBFVWE1C2B9xks2dfxCVKuip0v05GEJ0etWRa9fgN5gRta0pcdmpQJjz6hz7AnvKRRTlS/WLM4JL+NYdsyc8osBMXS8e1XIERnGb3qKpKbI43BP9xilVhlKVUL5FITxuFMeyPaD3EM9nXukx+DxLJXsEfk0qlBzLTN2NF1WHOm1Dh45xXtYU0qC68TOOPNi95ITwAyCOlOILAoEOH/NKHQgjl2VbWeysoGi7CKKba3cPUhJ+fGYJ+XA/FRZPndZ4VNdHOpJKFQzlANQtTNEilPp0udr3a1Vaqgiusbri3p3zuC4ndebMgko/hiV1aYqVMXcBwpDvx0L+tnHf09+Ru588zTqflf6c/MVLEkyKBzGIswVhHcgrZk4XClFqH5aJx0IHz0oVKtlFG+gUtCsmWT3sV/tlBCu1XtbkyTTFxnJkSkpAibe4qg4SM6QUx6ccH5rFSYd4IW3jQfBiZaJcHpgmPBCYN+xLVzd5XuWzPc454cmgOoAynNtC/ACgOIshlyO1ww0v8fZAj0fKAJqxJqB5nc3W6DnA9W1mwMFW2YNTC8QkIeB6QUqoz6BpZJbUq3zf+T8qgITvqG3ay3CUhA2J8UA2pYt0iuQNiDJULst0jKRNiDN0CCkpacZl85CdScSbaPiPP9OvOe0f4vvoYFcse4QBrUy6vH3PLFu15cDG/utv5/ynkYlzm3hXw7CBiXO+WudWqQXIG1A4izmiBZpOUibkDi3TadSc0WkNy5XFKlhi7gcxPu5tUGI2yZVOYhvgtTaEmR1vT9DMhm9Dh8fP+N/nU8fLDVGBxqXMx4TEi8by8N8WLWMctk3Y/V5yiPyHKqQp1yytFk3U7HAhBY2o4oWNoN+A83npTcGrv++rS/rBK4GrGwJmtww/EIcImnFzuSFqzxP/CjSXbnQOB9ubtQq9nSEUZWi+V1HV80GlpkwfI8fQ9WUF48yxQ9RZwZFIrXBkajwwtlzuIogA4wVtaKx8jb9I/g6ItFfz8MnOnj5+m3tr8C5KEPgPpaLF36ss4yl+yCKAuH9PlBoQO1cLwqorLoTFHrmeS4EhCj4ceeqYJT+/PivAyOzTrrouCijcgFRFPgq9j5QGEAxUNaoYG8Pv6Cx23f0OyRo9D8=&amp;lt;/diagram&amp;gt;&amp;lt;/mxfile&amp;gt;&lt;/td&gt;&lt;/tr&gt;&lt;/tbody&gt;&lt;/table&gt;&lt;/div&gt;&lt;/div&gt;&lt;details class=&quot;details-reset details-overlay details-overlay-dark&quot; id=&quot;jumpto-line-details-dialog&quot; style=&quot;box-sizing: border-box ; display: block&quot;&gt;&lt;summary style=&quot;box-sizing: border-box ; display: list-item ; cursor: pointer ; list-style: none&quot;&gt;&lt;/summary&gt;&lt;/details&gt;&lt;/div&gt;&lt;/div&gt;&lt;/div&gt;&lt;/div&gt;&lt;div class=&quot;footer container-xl width-full p-responsive&quot; style=&quot;box-sizing: border-box ; margin-right: auto ; margin-left: auto ; max-width: 1280px ; width: 1280px ; padding-right: 16px ; padding-left: 16px&quot;&gt;&lt;div class=&quot;position-relative d-flex flex-row-reverse flex-lg-row flex-wrap flex-lg-nowrap flex-justify-center flex-lg-justify-between flex-sm-items-center pt-6 pb-2 mt-6 f6 text-gray border-top border-gray-light &quot; style=&quot;box-sizing: border-box ; position: relative ; margin-top: 40px ; padding-bottom: 8px ; padding-top: 40px ; font-size: 12px ; display: flex&quot;&gt;&lt;a title=&quot;GitHub&quot; class=&quot;footer-octicon d-none d-lg-block mr-lg-4&quot; href=&quot;https://github.com/&quot; style=&quot;box-sizing: border-box; background-color: rgb(255, 255, 255); text-decoration: none; margin-right: 24px; display: block; font-size: 12px; font-style: normal; font-weight: 400; letter-spacing: normal; text-indent: 0px; text-transform: none; word-spacing: 0px;&quot;&gt;&lt;/a&gt;&lt;ul class=&quot;list-style-none d-flex flex-wrap col-12 flex-justify-center flex-lg-justify-between mb-2 mb-lg-0&quot; style=&quot;box-sizing: border-box; padding-left: 0px; margin-top: 0px; margin-bottom: 0px; width: 1200px; list-style: none; display: flex; color: rgb(88, 96, 105); font-size: 12px; font-style: normal; font-weight: 400; letter-spacing: normal; text-indent: 0px; text-transform: none; word-spacing: 0px; background-color: rgb(255, 255, 255);&quot;&gt;&lt;br class=&quot;Apple-interchange-newline&quot;&gt;&lt;/ul&gt;&lt;/div&gt;&lt;/div&gt;" style="text;whiteSpace=wrap;html=1;" vertex="1" parent="1">
                    <mxGeometry x="80" y="170" width="550" height="240" as="geometry"/>
                </mxCell>
            </root>
        </mxGraphModel>
    </diagram>
</mxfile>